HIERARCHY
ROOT Hips
{
	OFFSET 0.000000 0.000000 0.990480
	CHANNELS 6 Xposition Yposition Zposition Xrotation Yrotation Zrotation
	JOINT Spine
	{
		OFFSET 0.000000 0.000000 0.099820
		CHANNELS 6 Xposition Yposition Zposition Xrotation Yrotation Zrotation
		JOINT Chest
		{
			OFFSET 0.000000 0.000000 0.152175
			CHANNELS 6 Xposition Yposition Zposition Xrotation Yrotation Zrotation
			JOINT Neck
			{
				OFFSET 0.000000 0.000000 0.337083
				CHANNELS 6 Xposition Yposition Zposition Xrotation Yrotation Zrotation
				JOINT Head
				{
					OFFSET 0.000000 0.000000 0.150550
					CHANNELS 3 Xrotation Yrotation Zrotation
					End Site
					{
						OFFSET 0.000000 0.000000 0.164719
					}
				}
			}
			JOINT RightShoulder
			{
				OFFSET -0.043277 0.000000 0.228616
				CHANNELS 6 Xposition Yposition Zposition Xrotation Yrotation Zrotation
				JOINT RightArm
				{
					OFFSET -0.105461 0.000000 0.000004
					CHANNELS 6 Xposition Yposition Zposition Xrotation Yrotation Zrotation
					JOINT RightForeArm
					{
						OFFSET -0.247377 0.000000 0.000009
						CHANNELS 6 Xposition Yposition Zposition Xrotation Yrotation Zrotation
						JOINT RightHand
						{
							OFFSET -0.262149 0.000000 0.000009
							CHANNELS 6 Xposition Yposition Zposition Xrotation Yrotation Zrotation
							JOINT RightHandIndex1
							{
								OFFSET -0.082535 -0.029415 0.000003
								CHANNELS 3 Xrotation Yrotation Zrotation
								JOINT RightHandIndex2
								{
									OFFSET -0.033301 -0.004409 0.000001
									CHANNELS 3 Xrotation Yrotation Zrotation
									JOINT RightHandIndex3
									{
										OFFSET -0.025492 -0.003784 0.000001
										CHANNELS 3 Xrotation Yrotation Zrotation
										End Site
										{
											OFFSET -0.043285 -0.003344 0.000001
										}
									}
								}
							}
							JOINT RightHandMiddle1
							{
								OFFSET -0.088557 -0.008155 0.000003
								CHANNELS 3 Xrotation Yrotation Zrotation
								JOINT RightHandMiddle2
								{
									OFFSET -0.034042 -0.001186 0.000001
									CHANNELS 3 Xrotation Yrotation Zrotation
									JOINT RightHandMiddle3
									{
										OFFSET -0.026773 -0.000599 0.000000
										CHANNELS 3 Xrotation Yrotation Zrotation
										End Site
										{
											OFFSET -0.052615 -0.002366 0.000002
										}
									}
								}
							}
							JOINT RightHandRing1
							{
								OFFSET -0.085632 0.009333 0.000003
								CHANNELS 3 Xrotation Yrotation Zrotation
								JOINT RightHandRing2
								{
									OFFSET -0.029113 0.002339 0.000001
									CHANNELS 3 Xrotation Yrotation Zrotation
									JOINT RightHandRing3
									{
										OFFSET -0.027037 0.001866 0.000001
										CHANNELS 3 Xrotation Yrotation Zrotation
										End Site
										{
											OFFSET -0.048310 0.000687 0.000001
										}
									}
								}
							}
							JOINT RightHandPinky1
							{
								OFFSET -0.076599 0.027405 0.000003
								CHANNELS 3 Xrotation Yrotation Zrotation
								JOINT RightHandPinky2
								{
									OFFSET -0.032445 0.007645 0.000002
									CHANNELS 3 Xrotation Yrotation Zrotation
									JOINT RightHandPinky3
									{
										OFFSET -0.019101 0.004136 0.000001
										CHANNELS 3 Xrotation Yrotation Zrotation
										End Site
										{
											OFFSET -0.036478 0.003212 0.000001
										}
									}
								}
							}
							JOINT RightHandThumb1
							{
								OFFSET -0.018894 -0.029252 0.000001
								CHANNELS 3 Xrotation Yrotation Zrotation
								JOINT RightHandThumb2
								{
									OFFSET -0.024834 -0.023384 0.000001
									CHANNELS 3 Xrotation Yrotation Zrotation
									JOINT RightHandThumb3
									{
										OFFSET -0.024730 -0.013883 0.000001
										CHANNELS 3 Xrotation Yrotation Zrotation
										End Site
										{
											OFFSET -0.036269 -0.015625 0.000001
										}
									}
								}
							}
						}
					}
				}
			}
			JOINT LeftShoulder
			{
				OFFSET 0.043336 0.000000 0.228616
				CHANNELS 6 Xposition Yposition Zposition Xrotation Yrotation Zrotation
				JOINT LeftArm
				{
					OFFSET 0.105402 0.000000 0.000018
					CHANNELS 6 Xposition Yposition Zposition Xrotation Yrotation Zrotation
					JOINT LeftForeArm
					{
						OFFSET 0.248086 -0.001017 0.000042
						CHANNELS 6 Xposition Yposition Zposition Xrotation Yrotation Zrotation
						JOINT LeftHand
						{
							OFFSET 0.262001 0.000000 0.000044
							CHANNELS 6 Xposition Yposition Zposition Xrotation Yrotation Zrotation
							JOINT LeftHandIndex1
							{
								OFFSET 0.082507 -0.030061 -0.000028
								CHANNELS 3 Xrotation Yrotation Zrotation
								JOINT LeftHandIndex2
								{
									OFFSET 0.033280 -0.004602 0.000048
									CHANNELS 3 Xrotation Yrotation Zrotation
									JOINT LeftHandIndex3
									{
										OFFSET 0.025464 -0.003944 0.000004
										CHANNELS 3 Xrotation Yrotation Zrotation
										End Site
										{
											OFFSET 0.043236 -0.003593 0.000007
										}
									}
								}
							}
							JOINT LeftHandMiddle1
							{
								OFFSET 0.088481 -0.008664 0.000015
								CHANNELS 3 Xrotation Yrotation Zrotation
								JOINT LeftHandMiddle2
								{
									OFFSET 0.034019 -0.001373 0.000006
									CHANNELS 3 Xrotation Yrotation Zrotation
									JOINT LeftHandMiddle3
									{
										OFFSET 0.026769 -0.000745 0.000005
										CHANNELS 3 Xrotation Yrotation Zrotation
										End Site
										{
											OFFSET 0.052542 -0.002648 0.000009
										}
									}
								}
							}
							JOINT LeftHandRing1
							{
								OFFSET 0.085626 0.008930 0.000014
								CHANNELS 3 Xrotation Yrotation Zrotation
								JOINT LeftHandRing2
								{
									OFFSET 0.029129 0.002221 0.000005
									CHANNELS 3 Xrotation Yrotation Zrotation
									JOINT LeftHandRing3
									{
										OFFSET 0.027049 0.001739 0.000005
										CHANNELS 3 Xrotation Yrotation Zrotation
										End Site
										{
											OFFSET 0.048215 0.000435 0.000008
										}
									}
								}
							}
							JOINT LeftHandPinky1
							{
								OFFSET 0.076700 0.027168 0.000013
								CHANNELS 3 Xrotation Yrotation Zrotation
								JOINT LeftHandPinky2
								{
									OFFSET 0.032485 0.007539 0.000005
									CHANNELS 3 Xrotation Yrotation Zrotation
									JOINT LeftHandPinky3
									{
										OFFSET 0.019121 0.004064 0.000003
										CHANNELS 3 Xrotation Yrotation Zrotation
										End Site
										{
											OFFSET 0.036502 0.003032 0.000006
										}
									}
								}
							}
							JOINT LeftHandThumb1
							{
								OFFSET 0.018711 -0.029540 0.000003
								CHANNELS 3 Xrotation Yrotation Zrotation
								JOINT LeftHandThumb2
								{
									OFFSET 0.024721 -0.023664 0.000004
									CHANNELS 3 Xrotation Yrotation Zrotation
									JOINT LeftHandThumb3
									{
										OFFSET 0.024649 -0.014096 0.000004
										CHANNELS 3 Xrotation Yrotation Zrotation
										End Site
										{
											OFFSET 0.036243 -0.015928 0.000006
										}
									}
								}
							}
						}
					}
				}
			}
		}
	}
	JOINT RightUpLeg
	{
		OFFSET -0.115000 0.000000 -0.015985
		CHANNELS 6 Xposition Yposition Zposition Xrotation Yrotation Zrotation
		JOINT RightLeg
		{
			OFFSET 0.000000 0.000000 -0.417140
			CHANNELS 6 Xposition Yposition Zposition Xrotation Yrotation Zrotation
			JOINT RightFoot
			{
				OFFSET 0.000000 0.000000 -0.438030
				CHANNELS 3 Xrotation Yrotation Zrotation
				JOINT RightToeBase
				{
					OFFSET 0.000000 -0.104620 -0.083528
					CHANNELS 6 Xposition Yposition Zposition Xrotation Yrotation Zrotation
					End Site
					{
						OFFSET 0.000000 -0.133871 -0.000951
					}
				}
			}
		}
	}
	JOINT LeftUpLeg
	{
		OFFSET 0.115000 0.000000 -0.015985
		CHANNELS 6 Xposition Yposition Zposition Xrotation Yrotation Zrotation
		JOINT LeftLeg
		{
			OFFSET 0.000000 0.000000 -0.417140
			CHANNELS 6 Xposition Yposition Zposition Xrotation Yrotation Zrotation
			JOINT LeftFoot
			{
				OFFSET 0.000000 0.000000 -0.438030
				CHANNELS 3 Xrotation Yrotation Zrotation
				JOINT LeftToeBase
				{
					OFFSET 0.000000 -0.104620 -0.083528
					CHANNELS 6 Xposition Yposition Zposition Xrotation Yrotation Zrotation
					End Site
					{
						OFFSET 0.000000 -0.133871 -0.000951
					}
				}
			}
		}
	}
}
MOTION
Frames: 4
Frame Time:	0.016667
0 0 0.9905 0 0 0 0 0 0.0998 0 0 0 0 0 0.1522 0 0 0 0 0 0.3371 0 0 0 0 0 0 -0.0433 0 0.2286 0 0 0 -0.1055 0 0 0 0 0 -0.2474 0 0 0 0 0 -0.2621 0 0 0 0 0 0 0 0 0 0 0 0 0 0 0 0 0 0 0 0 0 0 0 0 0 0 0 0 0 0 0 0 0 0 0 0 0 0 0 0 0 0 0 0 0 0 0 0 0 0 0.0433 0 0.2286 0 0 0 0.1054 0 0 0 0 0 0.2481 -0.001 0 0 0 0 0.262 0 0 0 0 0 0 0 0 0 0 0 0 0 0 0 0 0 0 0 0 0 0 0 0 0 0 0 0 0 0 0 0 0 0 0 0 0 0 0 0 0 0 0 0 0 0 0 0 0 0 -0.115 0 -0.016 0 0 0 0 0 -0.4171 0 0 0 0 0 0 0 -0.1046 -0.0835 0 0 0 0.115 0 -0.016 0 0 0 0 0 -0.4171 0 0 0 0 0 0 0 -0.1046 -0.0835 0 0 0 
0.0642 0.1302 0.9452 -3.5967 5.0023 -5.3792 0 -0.0002 0.1008 10.8315 -0.0161 0.1226 0 -0.0007 0.1534 13.4468 0.0704 0.5066 0 0.0008 0.2931 -1.6051 0.2166 4.876 -33.8915 -1.9154 5.0289 -0.0433 0.0008 0.2364 8.6831 -21.7623 -1.8583 -0.1055 0 0 13.7888 -42.9409 21.8372 -0.2672 0 0 -6.3185 -4.7302 39.9583 -0.2831 0 0 25.5233 -2.4264 7.4807 28.1389 -63.6915 33.5593 35.2392 -79.5867 32.3139 9.5626 -64.7767 7.6315 13.9289 -65.9531 19.1493 4.4901 -78.8921 4.071 3.5421 -76.5335 3.1445 -9.7603 -65.9319 -4.6854 -10.2243 -75.72 -9.0158 -15.5085 -79.7572 -14.183 -9.785 -58.424 5.6911 -28.1793 -67.4731 -19.6472 -32.6903 -69.9079 -23.851 12.2702 -22.4546 -1.3175 -0.004 0.002 -25.5763 -0.0042 0.0031 -53.3165 0.0433 0.0008 0.2364 6.4543 19.2336 2.3241 0.1054 0 0 9.5442 37.2582 -18.8016 0.2676 -0.0011 0 -8.3721 3.1168 -48.7455 0.2826 0 0 23.1614 2.2301 -12.8172 28.1979 63.453 -33.4908 35.8281 79.3233 -32.786 9.9492 64.7241 -7.9361 13.8423 65.5056 -18.814 5.5255 78.7889 -5.0051 4.3554 76.4088 -3.8623 -9.0586 66.9165 3.3648 -10.3807 75.9946 8.9914 -15.7816 80.086 14.2786 -9.4447 58.1298 -5.9173 -27.9596 67.4639 19.4084 -32.2871 69.8517 23.4403 12.3555 22.3953 1.3773 -0.004 -0.0009 25.4505 -0.0073 -0.0043 53.2718 -0.115 0 -0.016 12.9364 0.8751 -5.8855 0 0 -0.4171 7.8912 -0.137 0.0095 -16.6434 -8.4311 -3.6966 0 -0.1046 -0.0835 0 0 0 0.115 0 -0.016 -12.2621 -8.3737 3.412 0 0 -0.4171 26.5447 0.6195 -0.1461 -9.0955 1.154 1.8971 0 -0.1046 -0.0835 -0.7469 0 0 
0.063 0.131 0.9449 -3.5361 4.895 -5.4067 0 -0.0002 0.1008 10.805 0.0229 0.1435 0 -0.0007 0.1534 13.417 0.1181 0.5862 0 0.0008 0.2932 -1.5975 0.213 4.8582 -33.8799 -1.8259 5.0054 -0.0433 0.0008 0.2364 8.6705 -21.7433 -1.8521 -0.1055 0 0 13.7044 -42.9638 21.6885 -0.2672 0 0 -6.3645 -4.7957 40.2692 -0.2831 0 0 25.3307 -2.4654 7.4063 28.139 -63.6915 33.5594 35.2391 -79.5867 32.3139 9.5626 -64.7767 7.6315 13.9289 -65.953 19.1493 4.4899 -78.8921 4.0708 3.5419 -76.5333 3.1444 -9.7604 -65.9319 -4.6855 -10.2241 -75.7199 -9.0157 -15.5084 -79.7572 -14.1829 -9.7851 -58.4239 5.6906 -28.1791 -67.473 -19.647 -32.6898 -69.9076 -23.8506 12.2701 -22.4545 -1.3175 -0.004 0.002 -25.5763 -0.0042 0.0031 -53.3164 0.0433 0.0008 0.2364 6.425 19.1996 2.3074 0.1054 0 0 9.5181 37.1836 -18.8809 0.2676 -0.0011 0 -8.4045 3.0879 -48.7725 0.2826 0 0 23.1583 2.3679 -12.8456 28.1979 63.453 -33.4909 35.828 79.3233 -32.7861 9.9492 64.7241 -7.9361 13.8422 65.5056 -18.814 5.5255 78.7888 -5.0051 4.3554 76.4088 -3.8622 -9.0586 66.9165 3.3647 -10.3807 75.9946 8.9914 -15.7815 80.086 14.2785 -9.4448 58.1297 -5.917 -27.9593 67.4638 19.4081 -32.2872 69.8517 23.4404 12.3555 22.3953 1.3773 -0.004 -0.0009 25.4505 -0.0073 -0.0043 53.2718 -0.115 0 -0.016 11.6772 1.5345 -6.5657 0 0 -0.4171 10.5107 -0.1938 0.0104 -17.9455 -7.583 -4.2155 0 -0.1046 -0.0835 0 0 0 0.115 0 -0.016 -12.3365 -8.3495 3.4259 0 0 -0.4171 26.4654 0.617 -0.1451 -9.0028 1.2252 1.904 0 -0.1046 -0.0835 -0.7461 0 0 
0.06 0.1325 0.9443 -3.5401 4.5973 -5.3874 0 -0.0002 0.1008 10.7977 0.1661 0.1464 0 -0.0007 0.1534 13.4133 0.2924 0.6244 0 0.0007 0.2932 -1.588 0.1871 4.8772 -33.804 -1.7029 4.9868 -0.0433 0.0007 0.2364 8.6727 -21.7329 -1.8001 -0.1055 0 0 13.6447 -43.0779 21.5657 -0.2672 0 0 -6.4237 -4.9185 40.7894 -0.2831 0 0 25.05 -2.4498 7.2594 28.139 -63.6915 33.5594 35.2392 -79.5867 32.3139 9.5626 -64.7767 7.6315 13.9288 -65.953 19.1491 4.49 -78.8919 4.0708 3.5421 -76.5332 3.1444 -9.7605 -65.9317 -4.6858 -10.224 -75.7198 -9.0156 -15.5081 -79.7571 -14.1827 -9.7854 -58.4236 5.6893 -28.1786 -67.4726 -19.6466 -32.6884 -69.907 -23.8493 12.2702 -22.4545 -1.3176 -0.004 0.002 -25.5763 -0.0042 0.0031 -53.3164 0.0433 0.0007 0.2364 6.3457 19.11 2.316 0.1054 0 0 9.4042 36.9417 -18.9703 0.2676 -0.0011 0 -8.4942 2.9882 -48.7407 0.2826 0 0 23.1468 2.6768 -13.0252 28.198 63.453 -33.4908 35.828 79.3233 -32.786 9.9492 64.7241 -7.9361 13.8421 65.5055 -18.8139 5.5253 78.7886 -5.0049 4.3554 76.4087 -3.8623 -9.0586 66.9165 3.3647 -10.3806 75.9946 8.9914 -15.7816 80.086 14.2786 -9.445 58.1297 -5.9162 -27.9587 67.4634 19.4076 -32.287 69.8517 23.4402 12.3555 22.3953 1.3772 -0.004 -0.0009 25.4505 -0.0073 -0.0043 53.2718 -0.115 0 -0.016 10.0319 2.8443 -7.7178 0 0 -0.4171 14.2645 -0.2874 0.012 -19.4385 -6.0147 -5.2644 0 -0.1046 -0.0835 0 0 0 0.115 0 -0.016 -12.3874 -8.2534 3.4305 0 0 -0.4171 26.3684 0.6115 -0.1434 -8.8888 1.4307 1.8678 0 -0.1046 -0.0835 -0.7277 0 0 
